<svg width="166" height="27" viewBox="0 0 166 27" fill="none" xmlns="http://www.w3.org/2000/svg">
<path d="M3.012 3.288L0.292 2.846V0.737999H18.414L18.856 6.45H16.476L15.354 3.084L8.01 2.778V11.924L12.736 11.822L13.28 9.034H15.456V17.262H13.28L12.736 14.338L8.01 14.236V23.824L16.238 23.416L18.21 19.064L20.76 19.778L19.876 26H0.326V23.96L3.012 23.62V3.288ZM33.0713 13.658L26.1353 3.322L23.7893 2.846V0.737999H34.9073V2.846L32.0173 3.322L36.6753 11.04L41.4693 3.288L38.5453 2.846V0.737999H47.2833V2.846L44.5293 3.322L37.9333 12.57L45.3453 23.62L47.7253 23.96V26H36.6413V23.96L39.4973 23.62L34.3973 15.29L29.5013 23.62L32.7653 23.96V26H23.4833V23.96L26.3393 23.62L33.0713 13.658ZM58.9988 0.601999H64.2008L72.0548 23.62L74.0268 23.96V26H63.9968V23.96L66.5468 23.62L65.2208 19.2H56.4148L55.0888 23.654L57.8428 23.96V26H49.1728L49.1388 23.96L51.1788 23.62L58.9988 0.601999ZM61.3448 6.348L60.7328 3.696L60.0868 6.382L57.0608 16.82H64.5408L61.3448 6.348ZM81.0298 3.288L77.3578 2.846V0.737999H87.9658L92.0118 15.358L92.9638 19.336L93.7798 15.358L97.7918 0.737999H108.298V2.846L104.592 3.288L107.312 23.586L110.066 23.96V26H99.2198V23.96L102.212 23.62L100.716 8.728L100.07 2.506L98.8118 7.742L93.8818 24.946H90.2778L85.2458 8.626L83.5118 2.506L83.0018 8.728L81.7098 23.62L85.1438 23.96V26H75.6918V23.96L78.5478 23.62L81.0298 3.288ZM116.88 26.306C116.178 26.306 115.566 26.068 115.044 25.592C114.523 25.0933 114.262 24.47 114.262 23.722C114.262 22.8833 114.557 22.2033 115.146 21.682C115.758 21.138 116.495 20.866 117.356 20.866C118.172 20.866 118.818 21.1267 119.294 21.648C119.77 22.1467 120.008 22.7473 120.008 23.45C120.008 24.334 119.714 25.0367 119.124 25.558C118.558 26.0567 117.81 26.306 116.88 26.306ZM140.979 26.34C140.231 26.34 139.687 26.1813 139.347 25.864C139.007 25.5467 138.837 25.0707 138.837 24.436V23.518C138.225 24.266 137.364 24.9347 136.253 25.524C135.143 26.0907 134.032 26.374 132.921 26.374C130.745 26.374 129.193 25.8187 128.263 24.708C127.334 23.5747 126.869 21.716 126.869 19.132V9.544L125.169 9.068V7.13L130.949 6.688H130.983L131.663 7.164V19.132C131.663 20.7867 131.867 21.9427 132.275 22.6C132.683 23.2573 133.443 23.586 134.553 23.586C135.891 23.586 137.137 23.0647 138.293 22.022V9.544L136.015 9.034V7.13L142.169 6.688H142.237L143.053 7.164V23.892H144.957L144.923 25.83C144.833 25.8527 144.413 25.9433 143.665 26.102C142.917 26.2607 142.022 26.34 140.979 26.34ZM153.1 9.544L152.318 12.876H149.87V7.096H164.864L165.646 8.864L156.602 21.41L154.222 23.858L161.838 23.484L163.47 19.574L165.782 19.846L165.238 26H149.462L148.612 24.13L157.894 11.856L160.342 9.306L153.1 9.544Z" fill="white"/>
</svg>
